<svg xmlns="http://www.w3.org/2000/svg" width="836" height="1254" viewBox="0 0 836 1254">
<g>
<path d="M 378.97 716.75 C374.93,722.94 371.60,727.98 371.56,727.96 C371.53,727.94 362.99,725.45 352.59,722.42 C342.19,719.40 333.35,716.72 332.94,716.46 C332.53,716.21 332.44,709.76 332.74,702.14 L 333.29 688.27 L 322.89 682.45 C317.18,679.25 310.13,675.12 307.23,673.27 C304.31,671.41 301.41,670.22 300.73,670.61 C300.05,671.00 294.68,674.43 288.79,678.24 C281.94,682.67 277.61,684.88 276.79,684.37 C274.46,682.94 252.53,664.36 251.04,662.56 C249.73,660.97 250.25,659.52 256.30,648.01 L 263.02 635.23 L 259.73 630.37 C250.79,617.17 244.59,608.78 243.42,608.33 C242.71,608.06 236.00,609.04 228.50,610.52 C221.00,611.99 214.75,613.04 214.61,612.85 C213.07,610.73 208.18,601.33 204.18,592.78 L 199.21 582.18 L 208.74 575.34 C213.98,571.58 219.42,567.54 220.84,566.37 L 223.41 564.25 L 220.66 551.37 C219.15,544.29 217.58,536.70 217.17,534.50 L 216.42 530.50 L 187.50 524.50 L 187.50 486.50 L 199.50 484.69 C206.10,483.69 212.57,482.34 213.88,481.69 C215.99,480.63 216.63,478.67 219.64,464.00 L 223.02 447.50 L 219.76 444.69 C217.97,443.14 212.99,439.40 208.70,436.38 C204.40,433.35 200.64,430.21 200.32,429.40 C200.01,428.59 200.89,425.36 202.27,422.21 C203.65,419.07 206.68,412.11 209.00,406.75 C212.14,399.48 213.69,397.00 215.06,397.00 C216.07,397.00 222.43,398.12 229.20,399.50 C235.96,400.88 241.77,402.00 242.11,402.00 C242.44,402.00 244.30,399.64 246.24,396.75 C248.17,393.86 252.26,388.13 255.32,384.01 L 260.88 376.52 L 254.00 363.49 L 247.11 350.46 L 253.80 344.39 C257.49,341.05 263.55,335.74 267.27,332.58 L 274.05 326.84 L 279.60 329.97 C282.65,331.69 288.30,335.06 292.16,337.46 L 299.17 341.83 L 311.01 334.33 C322.55,327.02 322.84,326.76 322.38,323.67 C321.09,314.95 319.28,299.46 319.52,299.18 C319.87,298.78 335.14,293.11 345.17,289.64 C349.39,288.19 353.50,286.74 354.31,286.43 C355.35,286.03 357.33,288.45 361.06,294.68 C363.96,299.53 367.14,304.67 368.12,306.09 L 369.91 308.68 L 378.02 307.14 C385.10,305.79 386.25,305.78 387.05,307.05 C388.19,308.84 388.28,337.01 387.15,338.78 C386.71,339.49 382.78,340.93 378.42,341.98 C337.14,351.92 301.15,376.24 276.80,410.65 C245.72,454.56 238.66,514.74 258.53,566.23 C281.49,625.70 336.89,668.64 400.21,676.03 C414.45,677.69 440.46,676.78 452.51,674.19 C495.38,664.98 538.04,635.65 561.21,599.46 C580.94,568.63 589.26,540.41 589.19,504.50 C589.13,470.68 580.31,441.28 561.93,413.50 C544.94,387.85 523.19,368.94 494.57,354.94 C482.49,349.04 465.26,342.88 456.93,341.50 C453.83,340.99 451.94,340.78 450.78,339.75 C448.99,338.14 448.99,334.52 449.00,324.59 C449.00,323.91 449.00,323.20 449.00,322.46 L 449.00 306.00 L 452.25 306.04 C454.04,306.05 458.31,306.67 461.73,307.41 L 467.97 308.75 L 474.03 297.87 C478.13,290.51 480.64,287.02 481.79,287.05 C482.73,287.08 490.92,289.71 500.00,292.89 L 516.50 298.67 L 516.47 303.09 C516.45,305.51 516.08,312.00 515.65,317.50 L 514.88 327.50 L 524.53 333.50 C529.85,336.80 535.24,340.16 536.51,340.96 C538.70,342.33 539.38,342.05 548.67,335.87 C549.66,335.21 550.58,334.60 551.44,334.02 C558.85,329.07 561.40,327.37 563.54,327.79 C564.91,328.06 566.11,329.21 568.32,330.95 C571.17,333.20 577.23,338.52 581.79,342.77 L 590.07 350.50 L 583.96 362.93 C580.60,369.77 577.79,376.12 577.72,377.05 C577.59,378.76 593.70,402.00 595.02,402.00 C595.41,402.00 601.17,400.88 607.81,399.50 C614.44,398.12 620.74,397.00 621.81,397.00 C623.21,397.00 624.49,398.70 626.52,403.25 C634.68,421.59 637.00,427.16 637.00,428.43 C637.00,429.49 624.33,439.56 614.79,446.08 C614.09,446.55 620.27,480.60 621.23,481.56 C621.40,481.73 627.16,482.82 634.02,483.98 C640.88,485.13 647.29,486.32 648.25,486.61 C649.83,487.08 650.00,488.88 650.00,505.51 C650.00,515.61 649.63,524.11 649.19,524.38 C648.74,524.66 642.55,525.89 635.44,527.10 C628.32,528.32 622.01,529.81 621.41,530.41 C620.81,531.01 619.78,534.42 619.13,538.00 C618.48,541.58 616.88,549.35 615.57,555.28 L 613.20 566.05 L 625.10 573.78 C635.83,580.73 636.95,581.74 636.45,583.91 C635.49,588.00 623.20,613.00 622.15,613.00 C621.61,613.00 615.86,611.85 609.38,610.45 C602.90,609.05 596.58,608.04 595.35,608.20 C593.77,608.41 589.96,612.70 582.64,622.50 L 572.18 636.50 L 573.95 639.50 C574.93,641.15 578.35,646.73 581.56,651.91 L 587.39 661.32 L 582.80 665.48 C580.27,667.77 573.88,673.16 568.59,677.45 L 558.99 685.26 L 554.74 682.49 C552.41,680.97 547.52,677.54 543.88,674.86 C540.24,672.19 536.82,670.00 536.30,670.00 C535.77,670.00 528.40,674.05 519.92,678.99 C511.44,683.94 504.27,687.99 504.00,687.99 C503.73,688.00 503.65,694.46 503.84,702.36 L 504.18 716.72 L 496.84 718.77 C492.80,719.89 485.45,722.03 480.50,723.52 C479.40,723.86 478.37,724.17 477.42,724.46 C469.33,726.91 466.52,727.76 464.74,726.77 C463.58,726.12 462.86,724.70 461.41,722.43 C459.51,719.46 456.40,714.45 454.51,711.30 L 451.06 705.57 L 386.31 705.50 ZM 446.96 665.49 C436.72,667.48 410.55,668.25 399.50,666.90 C384.34,665.04 367.03,659.78 350.21,651.91 C334.13,644.39 320.66,634.81 305.63,620.18 L 297.77 612.53 L 301.63 610.81 C303.76,609.87 308.42,608.32 312.00,607.36 C315.58,606.41 318.82,605.15 319.22,604.56 C319.61,603.98 319.71,601.92 319.43,600.00 C319.16,598.08 319.37,595.84 319.91,595.03 C320.06,594.81 320.15,594.60 320.29,594.44 C321.37,593.24 325.50,594.79 379.56,615.10 C382.32,616.14 385.22,617.22 388.25,618.36 C393.61,620.38 402.38,623.67 407.75,625.68 C413.11,627.69 418.17,629.28 419.00,629.21 C419.83,629.14 429.50,625.66 440.50,621.47 C479.78,606.53 513.97,594.00 515.47,594.00 C516.66,594.00 517.00,595.24 517.00,599.53 C517.00,603.09 517.45,605.20 518.25,605.44 C530.90,609.22 536.77,611.16 537.99,611.95 C539.23,612.75 538.80,613.63 535.49,617.08 C523.71,629.37 502.18,644.99 487.11,652.18 C476.65,657.18 458.11,663.32 446.96,665.49 ZM 426.08 557.49 C425.88,557.56 425.69,557.64 425.50,557.71 C421.83,559.15 420.13,559.82 418.46,559.76 C416.94,559.71 415.44,559.07 412.50,557.88 C409.75,556.77 406.38,555.47 405.00,555.01 C403.62,554.54 396.42,551.90 389.00,549.14 C381.58,546.37 364.48,540.08 351.00,535.15 C337.52,530.23 326.62,525.81 326.76,525.35 C326.99,524.61 408.28,496.05 410.25,496.01 C410.66,496.01 411.00,498.20 411.00,500.89 L 411.00 505.78 L 400.49 510.10 C394.70,512.47 390.12,514.86 390.30,515.40 C390.48,515.94 396.88,518.69 404.52,521.52 L 418.40 526.67 L 425.45 523.98 C429.33,522.50 436.21,520.06 440.75,518.56 C445.29,517.06 449.00,515.51 449.00,515.10 C449.00,514.70 445.96,513.32 442.25,512.03 C432.97,508.81 428.25,506.34 427.03,504.06 C425.77,501.71 425.66,496.00 426.88,496.00 C427.37,496.00 441.20,500.66 457.63,506.36 C474.06,512.05 492.67,518.43 499.00,520.53 C505.33,522.63 510.71,524.52 510.97,524.73 C511.76,525.37 508.89,526.77 501.02,529.59 C491.16,533.13 443.92,550.56 437.50,553.04 C434.75,554.10 429.61,556.10 426.08,557.49 ZM 442.76 314.75 L 442.50 363.50 L 419.84 363.77 C400.08,364.00 396.97,363.83 395.56,362.42 C394.18,361.04 394.01,358.71 394.40,346.15 C394.65,338.09 394.89,316.76 394.93,298.75 L 395.00 266.00 L 443.02 266.00 ZM 445.83 608.60 C430.61,614.32 418.01,618.95 417.83,618.89 C417.65,618.83 411.88,616.58 405.00,613.89 C398.12,611.21 376.12,602.82 356.09,595.25 L 319.69 581.50 L 319.91 572.52 C320.03,567.57 320.25,563.42 320.38,563.28 C320.95,562.71 327.35,565.01 365.50,579.49 C404.79,594.41 417.30,599.00 418.59,599.00 C419.28,599.00 428.09,595.88 438.17,592.07 C448.25,588.26 466.85,581.26 479.50,576.52 C492.15,571.77 505.32,566.79 508.76,565.44 C512.20,564.10 515.47,563.00 516.01,563.00 C517.52,563.00 517.28,580.53 515.75,581.75 C515.06,582.29 506.40,585.74 496.50,589.41 C486.60,593.08 477.38,596.56 476.00,597.14 C474.62,597.72 461.05,602.87 445.83,608.60 ZM 438.50 581.32 C429.15,584.86 420.60,587.99 419.50,588.27 C418.34,588.57 407.82,585.04 394.50,579.90 C381.85,575.01 361.87,567.36 350.09,562.90 C338.32,558.44 326.73,553.96 324.34,552.93 L 320.00 551.07 L 320.00 532.96 L 322.75 533.61 C324.26,533.96 331.80,536.64 339.50,539.56 C347.20,542.47 364.98,549.19 379.00,554.49 C393.02,559.79 407.54,565.29 411.26,566.72 C413.48,567.58 414.84,568.24 416.28,568.52 C419.57,569.15 423.25,567.73 438.55,561.84 C440.36,561.14 442.34,560.38 444.50,559.56 C482.71,544.91 511.52,534.14 514.29,533.45 L 517.08 532.76 L 516.79 542.08 L 516.50 551.41 L 502.00 557.01 C482.23,564.65 458.86,573.59 438.50,581.32 ZM 443.46 414.38 C442.56,414.72 431.28,415.00 418.37,415.00 L 394.91 415.00 L 392.45 412.55 C390.01,410.10 390.00,409.99 390.00,390.20 C390.00,372.20 390.17,370.15 391.83,368.65 C393.43,367.21 396.78,367.00 418.58,367.02 C432.29,367.02 444.00,367.36 444.60,367.77 C447.45,369.67 448.00,373.37 448.00,390.48 C448.00,408.79 447.21,412.94 443.46,414.38 ZM 405.50 654.12 C412.10,656.79 417.96,658.98 418.51,658.99 C419.96,659.01 427.48,656.16 443.00,649.71 C450.42,646.63 470.00,638.56 486.50,631.78 L 516.50 619.45 L 516.81 616.22 C517.21,612.12 516.29,612.11 506.28,616.09 C502.00,617.79 492.65,621.35 485.50,624.00 C478.35,626.65 471.38,629.29 470.00,629.86 C468.62,630.44 456.49,635.01 443.04,640.03 L 418.58 649.15 L 412.04 646.63 C408.44,645.24 393.80,639.78 379.50,634.49 C365.20,629.20 346.60,622.20 338.17,618.94 C329.73,615.67 322.17,613.00 321.35,613.00 C320.29,613.00 319.96,613.90 320.19,616.22 C320.49,619.35 320.88,619.60 333.50,624.78 C348.47,630.94 387.92,647.01 405.50,654.12 ZM 447.79 437.25 L 447.50 444.50 L 419.97 444.77 C399.39,444.96 392.12,444.72 391.22,443.82 C390.52,443.12 390.00,439.91 390.00,436.30 L 390.00 430.00 L 448.09 430.00 ZM 382.02 413.49 C380.41,414.32 378.74,414.97 378.30,414.94 C376.25,414.77 373.28,412.98 371.00,410.53 C368.53,407.87 368.50,407.62 368.50,390.33 L 368.50 372.83 L 371.31 370.41 C375.18,367.08 381.19,367.10 384.55,370.45 C386.97,372.87 387.00,373.16 387.00,390.52 C387.00,400.69 386.56,408.94 385.97,410.06 C385.40,411.11 383.63,412.66 382.02,413.49 ZM 462.47 413.58 C462.10,413.73 461.78,413.87 461.49,413.99 C460.16,414.56 459.51,414.84 458.85,414.83 C458.08,414.82 457.30,414.40 455.40,413.57 C453.69,412.83 452.01,411.46 451.65,410.53 C451.29,409.60 451.00,400.38 451.00,390.04 L 451.00 389.36 C451.00,375.76 451.00,371.29 453.18,369.57 C454.28,368.70 455.94,368.54 458.45,368.25 C462.41,367.81 463.24,368.09 465.95,370.80 L 469.00 373.85 L 469.00 389.97 C469.00,408.26 468.19,411.19 462.47,413.58 ZM 430.79 464.43 C423.86,470.34 422.65,471.00 418.73,471.00 C415.17,471.00 413.84,470.44 411.44,467.93 C409.82,466.24 405.01,462.11 400.75,458.75 L 400.46 458.52 C395.50,454.61 392.57,452.30 392.96,450.94 C393.52,449.00 400.88,449.00 418.78,449.00 L 419.50 449.00 C439.09,449.00 446.00,449.31 446.00,450.17 C446.00,451.35 444.82,452.46 430.79,464.43 ZM 440.50 418.50 L 440.50 426.50 L 419.25 426.77 L 398.00 427.04 L 398.00 417.96 L 419.25 418.23 ZM 433.43 518.02 C430.43,519.17 430.23,519.16 427.15,517.93 C422.72,516.16 418.96,512.83 416.98,508.96 C415.30,505.66 415.00,503.05 415.00,491.54 L 415.00 478.00 L 418.50 478.00 C421.98,478.00 422.00,478.03 422.21,482.75 C422.32,485.36 422.43,491.41 422.46,496.18 C422.50,504.31 422.68,505.05 425.32,507.81 C426.88,509.43 429.91,511.56 432.07,512.53 C436.60,514.58 437.11,516.63 433.43,518.02 Z" fill="rgb(0,0,0)"/>
<path d="M 0.00 627.00 L 0.00 0.00 L 418.00 0.00 L 836.00 0.00 L 836.00 627.00 L 836.00 1254.00 L 418.00 1254.00 L 0.00 1254.00 L 0.00 627.00 ZM 378.97 716.75 L 386.31 705.50 L 418.68 705.54 L 451.06 705.57 L 454.51 711.30 C456.40,714.45 459.51,719.46 461.41,722.43 C465.36,728.60 463.90,728.52 480.50,723.52 C485.45,722.03 492.80,719.89 496.84,718.77 L 504.18 716.72 L 503.84 702.36 C503.65,694.46 503.73,688.00 504.00,687.99 C504.27,687.99 511.44,683.94 519.92,678.99 C528.40,674.05 535.77,670.00 536.30,670.00 C536.82,670.00 540.24,672.19 543.88,674.86 C547.52,677.54 552.41,680.97 554.74,682.49 L 558.99 685.26 L 568.59 677.45 C573.88,673.16 580.27,667.77 582.80,665.48 L 587.39 661.32 L 581.56 651.91 C578.35,646.73 574.93,641.15 573.95,639.50 L 572.18 636.50 L 582.64 622.50 C589.96,612.70 593.77,608.41 595.35,608.20 C596.58,608.04 602.90,609.05 609.38,610.45 C615.86,611.85 621.61,613.00 622.15,613.00 C623.20,613.00 635.49,588.00 636.45,583.91 C636.95,581.74 635.83,580.73 625.10,573.78 L 613.20 566.05 L 615.57 555.28 C616.88,549.35 618.48,541.58 619.13,538.00 C619.78,534.42 620.81,531.01 621.41,530.41 C622.01,529.81 628.32,528.32 635.44,527.10 C642.55,525.89 648.74,524.66 649.19,524.38 C649.63,524.11 650.00,515.61 650.00,505.51 C650.00,488.88 649.83,487.08 648.25,486.61 C647.29,486.32 640.88,485.13 634.02,483.98 C627.16,482.82 621.40,481.73 621.23,481.56 C620.27,480.60 614.09,446.55 614.79,446.08 C624.33,439.56 637.00,429.49 637.00,428.43 C637.00,427.16 634.68,421.59 626.52,403.25 C624.49,398.70 623.21,397.00 621.81,397.00 C620.74,397.00 614.44,398.12 607.81,399.50 C601.17,400.88 595.41,402.00 595.02,402.00 C593.70,402.00 577.59,378.76 577.72,377.05 C577.79,376.12 580.60,369.77 583.96,362.93 L 590.07 350.50 L 581.79 342.77 C577.23,338.52 571.17,333.20 568.32,330.95 C562.29,326.19 563.77,325.82 548.67,335.87 C539.38,342.05 538.70,342.33 536.51,340.96 C535.24,340.16 529.85,336.80 524.53,333.50 L 514.88 327.50 L 515.65 317.50 C516.08,312.00 516.45,305.51 516.47,303.09 L 516.50 298.67 L 500.00 292.89 C490.92,289.71 482.73,287.08 481.79,287.05 C480.64,287.02 478.13,290.51 474.03,297.87 L 467.97 308.75 L 461.73 307.41 C458.31,306.67 454.04,306.05 452.25,306.04 L 449.00 306.00 L 449.00 322.46 C449.00,340.96 448.66,340.13 456.93,341.50 C465.26,342.88 482.49,349.04 494.57,354.94 C523.19,368.94 544.94,387.85 561.93,413.50 C580.31,441.28 589.13,470.68 589.19,504.50 C589.26,540.41 580.94,568.63 561.21,599.46 C538.04,635.65 495.38,664.98 452.51,674.19 C440.46,676.78 414.45,677.69 400.21,676.03 C336.89,668.64 281.49,625.70 258.53,566.23 C238.66,514.74 245.72,454.56 276.80,410.65 C301.15,376.24 337.14,351.92 378.42,341.98 C382.78,340.93 386.71,339.49 387.15,338.78 C388.28,337.01 388.19,308.84 387.05,307.05 C386.25,305.78 385.10,305.79 378.02,307.14 L 369.91 308.68 L 368.12 306.09 C367.14,304.67 363.96,299.53 361.06,294.68 C357.33,288.45 355.35,286.03 354.31,286.43 C353.50,286.74 349.39,288.19 345.17,289.64 C335.14,293.11 319.87,298.78 319.52,299.18 C319.28,299.46 321.09,314.95 322.38,323.67 C322.84,326.76 322.55,327.02 311.01,334.33 L 299.17 341.83 L 292.16 337.46 C288.30,335.06 282.65,331.69 279.60,329.97 L 274.05 326.84 L 267.27 332.58 C263.55,335.74 257.49,341.05 253.80,344.39 L 247.11 350.46 L 254.00 363.49 L 260.88 376.52 L 255.32 384.01 C252.26,388.13 248.17,393.86 246.24,396.75 C244.30,399.64 242.44,402.00 242.11,402.00 C241.77,402.00 235.96,400.88 229.20,399.50 C222.43,398.12 216.07,397.00 215.06,397.00 C213.69,397.00 212.14,399.48 209.00,406.75 C206.68,412.11 203.65,419.07 202.27,422.21 C200.89,425.36 200.01,428.59 200.32,429.40 C200.64,430.21 204.40,433.35 208.70,436.38 C212.99,439.40 217.97,443.14 219.76,444.69 L 223.02 447.50 L 219.64 464.00 C216.63,478.67 215.99,480.63 213.88,481.69 C212.57,482.34 206.10,483.69 199.50,484.69 L 187.50 486.50 L 187.50 505.50 L 187.50 524.50 L 201.96 527.50 L 216.42 530.50 L 217.17 534.50 C217.58,536.70 219.15,544.29 220.66,551.37 L 223.41 564.25 L 220.84 566.37 C219.42,567.54 213.98,571.58 208.74,575.34 L 199.21 582.18 L 204.18 592.78 C208.18,601.33 213.07,610.73 214.61,612.85 C214.75,613.04 221.00,611.99 228.50,610.52 C236.00,609.04 242.71,608.06 243.42,608.33 C244.59,608.78 250.79,617.17 259.73,630.37 L 263.02 635.23 L 256.30 648.01 C250.25,659.52 249.73,660.97 251.04,662.56 C252.53,664.36 274.46,682.94 276.79,684.37 C277.61,684.88 281.94,682.67 288.79,678.24 C294.68,674.43 300.05,671.00 300.73,670.61 C301.41,670.22 304.31,671.41 307.23,673.27 C310.13,675.12 317.18,679.25 322.89,682.45 L 333.29 688.27 L 332.74 702.14 C332.44,709.76 332.53,716.21 332.94,716.46 C333.35,716.72 342.19,719.40 352.59,722.42 C362.99,725.45 371.53,727.94 371.56,727.96 C371.60,727.98 374.93,722.94 378.97,716.75 ZM 446.96 665.49 C458.11,663.32 476.65,657.18 487.11,652.18 C502.18,644.99 523.71,629.37 535.49,617.08 C538.80,613.63 539.23,612.75 537.99,611.95 C536.77,611.16 530.90,609.22 518.25,605.44 C517.45,605.20 517.00,603.09 517.00,599.53 C517.00,595.24 516.66,594.00 515.47,594.00 C513.97,594.00 479.78,606.53 440.50,621.47 C429.50,625.66 419.83,629.14 419.00,629.21 C418.17,629.28 413.11,627.69 407.75,625.68 C402.38,623.67 393.61,620.38 388.25,618.36 C317.99,591.98 321.21,593.08 319.91,595.03 C319.37,595.84 319.16,598.08 319.43,600.00 C319.71,601.92 319.61,603.98 319.22,604.56 C318.82,605.15 315.58,606.41 312.00,607.36 C308.42,608.32 303.76,609.87 301.63,610.81 L 297.77 612.53 L 305.63 620.18 C320.66,634.81 334.13,644.39 350.21,651.91 C367.03,659.78 384.34,665.04 399.50,666.90 C410.55,668.25 436.72,667.48 446.96,665.49 ZM 445.83 608.60 C461.05,602.87 474.62,597.72 476.00,597.14 C477.38,596.56 486.60,593.08 496.50,589.41 C506.40,585.74 515.06,582.29 515.75,581.75 C517.28,580.53 517.52,563.00 516.01,563.00 C515.47,563.00 512.20,564.10 508.76,565.44 C505.32,566.79 492.15,571.77 479.50,576.52 C466.85,581.26 448.25,588.26 438.17,592.07 C428.09,595.88 419.28,599.00 418.59,599.00 C417.30,599.00 404.79,594.41 365.50,579.49 C327.35,565.01 320.95,562.71 320.38,563.28 C320.25,563.42 320.03,567.57 319.91,572.52 L 319.69 581.50 L 356.09 595.25 C376.12,602.82 398.12,611.21 405.00,613.89 C411.88,616.58 417.65,618.83 417.83,618.89 C418.01,618.95 430.61,614.32 445.83,608.60 ZM 438.50 581.32 C458.86,573.59 482.23,564.65 502.00,557.01 L 516.50 551.41 L 516.79 542.08 L 517.08 532.76 L 514.29 533.45 C511.52,534.14 482.71,544.91 444.50,559.56 C416.20,570.41 419.17,569.76 411.26,566.72 C407.54,565.29 393.02,559.79 379.00,554.49 C364.98,549.19 347.20,542.47 339.50,539.56 C331.80,536.64 324.26,533.96 322.75,533.61 L 320.00 532.96 L 320.00 542.02 L 320.00 551.07 L 324.34 552.93 C326.73,553.96 338.32,558.44 350.09,562.90 C361.87,567.36 381.85,575.01 394.50,579.90 C407.82,585.04 418.34,588.57 419.50,588.27 C420.60,587.99 429.15,584.86 438.50,581.32 ZM 426.08 557.49 C429.61,556.10 434.75,554.10 437.50,553.04 C443.92,550.56 491.16,533.13 501.02,529.59 C508.89,526.77 511.76,525.37 510.97,524.73 C510.71,524.52 505.33,522.63 499.00,520.53 C492.67,518.43 474.06,512.05 457.63,506.36 C441.20,500.66 427.37,496.00 426.88,496.00 C425.66,496.00 425.77,501.71 427.03,504.06 C428.25,506.34 432.97,508.81 442.25,512.03 C445.96,513.32 449.00,514.70 449.00,515.10 C449.00,515.51 445.29,517.06 440.75,518.56 C436.21,520.06 429.33,522.50 425.45,523.98 L 418.40 526.67 L 404.52 521.52 C396.88,518.69 390.48,515.94 390.30,515.40 C390.12,514.86 394.70,512.47 400.49,510.10 L 411.00 505.78 L 411.00 500.89 C411.00,498.20 410.66,496.01 410.25,496.01 C408.28,496.05 326.99,524.61 326.76,525.35 C326.62,525.81 337.52,530.23 351.00,535.15 C364.48,540.08 381.58,546.37 389.00,549.14 C396.42,551.90 403.62,554.54 405.00,555.01 C406.38,555.47 409.75,556.77 412.50,557.88 C418.85,560.45 418.47,560.46 426.08,557.49 ZM 433.43 518.02 C437.11,516.63 436.60,514.58 432.07,512.53 C429.91,511.56 426.88,509.43 425.32,507.81 C422.68,505.05 422.50,504.31 422.46,496.18 C422.43,491.41 422.32,485.36 422.21,482.75 C422.00,478.03 421.98,478.00 418.50,478.00 L 415.00 478.00 L 415.00 491.54 C415.00,503.05 415.30,505.66 416.98,508.96 C418.96,512.83 422.72,516.16 427.15,517.93 C430.23,519.16 430.43,519.17 433.43,518.02 ZM 430.79 464.43 C444.82,452.46 446.00,451.35 446.00,450.17 C446.00,449.31 439.09,449.00 419.50,449.00 C388.14,449.00 388.29,448.92 400.75,458.75 C405.01,462.11 409.82,466.24 411.44,467.93 C413.84,470.44 415.17,471.00 418.73,471.00 C422.65,471.00 423.86,470.34 430.79,464.43 ZM 447.79 437.25 L 448.09 430.00 L 419.04 430.00 L 390.00 430.00 L 390.00 436.30 C390.00,439.91 390.52,443.12 391.22,443.82 C392.12,444.72 399.39,444.96 419.97,444.77 L 447.50 444.50 L 447.79 437.25 ZM 440.50 422.50 L 440.50 418.50 L 419.25 418.23 L 398.00 417.96 L 398.00 422.50 L 398.00 427.04 L 419.25 426.77 L 440.50 426.50 L 440.50 422.50 ZM 382.02 413.49 C383.63,412.66 385.40,411.11 385.97,410.06 C386.56,408.94 387.00,400.69 387.00,390.52 C387.00,373.16 386.97,372.87 384.55,370.45 C381.19,367.10 375.18,367.08 371.31,370.41 L 368.50 372.83 L 368.50 390.33 C368.50,407.62 368.53,407.87 371.00,410.53 C373.28,412.98 376.25,414.77 378.30,414.94 C378.74,414.97 380.41,414.32 382.02,413.49 ZM 443.46 414.38 C447.21,412.94 448.00,408.79 448.00,390.48 C448.00,373.37 447.45,369.67 444.60,367.77 C444.00,367.36 432.29,367.02 418.58,367.02 C396.78,367.00 393.43,367.21 391.83,368.65 C390.17,370.15 390.00,372.20 390.00,390.20 C390.00,409.99 390.01,410.10 392.45,412.55 L 394.91 415.00 L 418.37 415.00 C431.28,415.00 442.56,414.72 443.46,414.38 ZM 462.47 413.58 C468.19,411.19 469.00,408.26 469.00,389.97 L 469.00 373.85 L 465.95 370.80 C463.24,368.09 462.41,367.81 458.45,368.25 C450.92,369.10 451.00,368.86 451.00,390.04 C451.00,400.38 451.29,409.60 451.65,410.53 C452.01,411.46 453.69,412.83 455.40,413.57 C459.25,415.25 458.47,415.25 462.47,413.58 ZM 442.76 314.75 L 443.02 266.00 L 419.01 266.00 L 395.00 266.00 L 394.93 298.75 C394.89,316.76 394.65,338.09 394.40,346.15 C394.01,358.71 394.18,361.04 395.56,362.42 C396.97,363.83 400.08,364.00 419.84,363.77 L 442.50 363.50 L 442.76 314.75 ZM 405.50 654.12 C387.92,647.01 348.47,630.94 333.50,624.78 C320.88,619.60 320.49,619.35 320.19,616.22 C319.96,613.90 320.29,613.00 321.35,613.00 C322.17,613.00 329.73,615.67 338.17,618.94 C346.60,622.20 365.20,629.20 379.50,634.49 C393.80,639.78 408.44,645.24 412.04,646.63 L 418.58 649.15 L 443.04 640.03 C456.49,635.01 468.62,630.44 470.00,629.86 C471.38,629.29 478.35,626.65 485.50,624.00 C492.65,621.35 502.00,617.79 506.28,616.09 C516.29,612.11 517.21,612.12 516.81,616.22 L 516.50 619.45 L 486.50 631.78 C470.00,638.56 450.42,646.63 443.00,649.71 C427.48,656.16 419.96,659.01 418.51,658.99 C417.96,658.98 412.10,656.79 405.50,654.12 Z" fill="rgb(253,253,253)"/>
</g>
</svg>